<svg width="32" height="32" viewBox="0 0 32 32" fill="none" xmlns="http://www.w3.org/2000/svg"><path fill="#fff" d="M0 0h32v32H0z"/><path d="M15.997 2.285c7.648 0 13.849 6.141 13.849 13.715s-6.2 13.714-13.849 13.714c-7.648 0-13.85-6.14-13.85-13.714S8.35 2.285 15.997 2.285m0 6.858a.5.5 0 0 0-.462.32l-.47 1.271a7.3 7.3 0 0 1-1.709 2.652 7.4 7.4 0 0 1-2.676 1.692l-1.284.465a.49.49 0 0 0-.324.457.485.485 0 0 0 .324.458l1.284.465a7.4 7.4 0 0 1 2.676 1.692 7.3 7.3 0 0 1 1.71 2.652l.47 1.27a.49.49 0 0 0 .461.32.5.5 0 0 0 .462-.32l.47-1.27a7.3 7.3 0 0 1 1.709-2.652 7.4 7.4 0 0 1 2.677-1.692l1.283-.465A.49.49 0 0 0 22.92 16a.48.48 0 0 0-.323-.457l-1.283-.465a7.4 7.4 0 0 1-2.677-1.692 7.3 7.3 0 0 1-1.71-2.652l-.469-1.271a.49.49 0 0 0-.462-.32" fill="#0f0f11"/></svg>
