<svg width="26" height="14" viewBox="0 0 26 14" fill="none" xmlns="http://www.w3.org/2000/svg"><g clip-path="url(#a)" fill="#fff"><path fill-rule="evenodd" clip-rule="evenodd" d="M12.998 0c5.315 0 10.033 2.75 12.997 7-2.964 4.25-7.682 7-12.997 7S2.964 11.25 0 7c2.964-4.25 7.683-7 12.998-7m-.002 1a6 6 0 1 0 0 12 6 6 0 0 0 0-12"/><path d="M12.796 4.14a.213.213 0 0 1 .4 0l.204.556a3.2 3.2 0 0 0 1.9 1.9l.556.204a.213.213 0 0 1 0 .4l-.556.204a3.2 3.2 0 0 0-1.9 1.9l-.204.556a.213.213 0 0 1-.4 0l-.203-.556a3.2 3.2 0 0 0-1.9-1.9l-.557-.204a.213.213 0 0 1 0-.4l.556-.203a3.2 3.2 0 0 0 1.9-1.9z"/></g><defs><clipPath id="a"><path fill="#fff" d="M0 0h25.995v14H0z"/></clipPath></defs></svg>
