<svg width="87" height="28" viewBox="0 0 87 28" fill="none" xmlns="http://www.w3.org/2000/svg">
  <path d="M22.509 10.706a3.57 3.57 0 0 1-3.57-3.569 3.57 3.57 0 0 1-3.567 3.57 3.57 3.57 0 0 1 3.568 3.568 3.57 3.57 0 0 1 3.569-3.569" fill="#F4F5F6"/>
  <path fill-rule="evenodd" clip-rule="evenodd" d="M0 13.961C.021 6.247 6.281 0 14 0c7.732 0 14 6.268 14 14 0 7.643-6.125 13.856-13.734 13.997Q14.134 28 14 28C6.268 28 0 21.732 0 14zm13.052 12.253a9.1 9.1 0 0 0 .356-2.53 9.09 9.09 0 0 0-9.092-9.092 9.1 9.1 0 0 0-2.53.356c.46 6.01 5.256 10.806 11.266 11.266M1.78 13.14a11 11 0 0 1 2.536-.298c5.988 0 10.842 4.854 10.842 10.842 0 .874-.103 1.723-.298 2.536 6.364-.44 11.39-5.743 11.39-12.22 0-6.765-5.485-12.25-12.25-12.25-6.477 0-11.78 5.026-12.22 11.39" fill="#F4F5F6"/>
  <path d="M43.696 2.2h1.54l3.542 9.8h-1.652l-.84-2.324h-3.654L41.792 12H40.14zm2.212 6.118-1.442-4.144h-.028l-1.414 4.144zM49.894 2.2h1.624v8.414h4.928V12h-6.552zm7.808 0h1.624V12h-1.624zm3.65 0h6.831v1.386h-5.208v2.8h4.802v1.372h-4.802v2.856h5.208V12h-6.832zm8.366 0h1.484l4.62 7.126h.028V2.2h1.554V12H75.92L71.3 4.888h-.028V12h-1.554zm9.443 8.358V9.326h1.596v.742l.532.532h3.052l.56-.56V8.234l-.546-.546H80.63L79.189 6.26V3.642L80.63 2.2h4.312l1.442 1.442v1.246h-1.596v-.756l-.546-.532H81.33l-.546.532v1.624l.546.532h3.724l1.442 1.442v2.8L85.027 12h-4.424zM49.156 26.812l-.994.994L46.342 26h-3.92l-1.582-1.582v-6.636l1.582-1.582h4.844l1.582 1.582v6.636l-1.022 1.022zm-2.73-2.212.798-.784v-5.432l-.798-.784h-3.164l-.798.784v5.432l.798.784zm4.247-.238V16.2h1.624v7.616l.798.784h2.884l.798-.784V16.2h1.624v8.162L56.763 26h-4.452zm9.694-8.162h6.832v1.386H61.99v2.8h4.802v1.372H61.99v2.856h5.208V26h-6.832zm8.157 8.358v-1.232h1.596v.742l.532.532h3.052l.56-.56v-1.806l-.546-.546h-3.724l-1.442-1.428v-2.618l1.442-1.442h4.312l1.442 1.442v1.246h-1.596v-.756l-.546-.532h-2.912l-.546.532v1.624l.546.532h3.724l1.442 1.442v2.8L74.39 26h-4.424zm10.9-6.972h-2.94V16.2h7.503v1.386h-2.94V26h-1.624z" fill="#F4F5F6"/>
</svg>
