<svg width="32" height="32" viewBox="0 0 32 32" fill="none" xmlns="http://www.w3.org/2000/svg">
  <path d="M25.725 12.236a4.08 4.08 0 0 1-4.08-4.08 4.08 4.08 0 0 1-4.076 4.08 4.08 4.08 0 0 1 4.077 4.078 4.08 4.08 0 0 1 4.078-4.078" fill="#D5D7DA"/>
  <path fill-rule="evenodd" clip-rule="evenodd" d="M0 15.956C.024 7.139 7.178 0 16 0c8.837 0 16 7.163 16 16 0 8.735-7 15.835-15.696 15.997Q16.153 32 16 32C7.163 32 0 24.837 0 16zm14.916 14.003c.265-.916.407-1.886.407-2.891 0-5.739-4.652-10.391-10.39-10.391-1.006 0-1.975.142-2.892.407.526 6.868 6.007 12.349 12.875 12.875M2.034 15.018c.93-.223 1.9-.341 2.898-.341 6.844 0 12.391 5.547 12.391 12.39 0 .999-.118 1.97-.34 2.9C24.256 29.461 30 23.401 30 16c0-7.732-6.268-14-14-14C8.598 2 2.538 7.744 2.034 15.018" fill="#D5D7DA"/>
</svg>
