<svg xmlns="http://www.w3.org/2000/svg" class="absolute inset-0 h-full w-full object-cover opacity-40 mix-blend-screen s-GfNvCE_LmVsp" viewBox="0 0 1600 900"><defs><circle id="s0" r="0.4" fill="white"/><circle id="s1" r="0.8" fill="white"/><circle id="s2" r="1.2" fill="white"/><circle id="s3" r="1.4" fill="white"/></defs><g fill-opacity="0.80"><use href="#s1" x="412" y="241"/><use href="#s2" x="850" y="825"/><use href="#s2" x="1476" y="898"/><use href="#s3" x="899" y="447"/><use href="#s3" x="475" y="896"/><use href="#s1" x="1102" y="143"/><use href="#s0" x="395" y="281"/><use href="#s1" x="526" y="50"/><use href="#s1" x="321" y="242"/><use href="#s0" x="521" y="232"/></g><g fill-opacity="0.25"><use href="#s0" x="64" y="671"/><use href="#s1" x="1262" y="760"/><use href="#s1" x="787" y="644"/><use href="#s1" x="1273" y="141"/><use href="#s3" x="447" y="856"/><use href="#s3" x="222" y="215"/></g><g fill-opacity="0.55"><use href="#s3" x="779" y="667"/><use href="#s3" x="210" y="133"/><use href="#s3" x="565" y="656"/><use href="#s1" x="820" y="13"/><use href="#s1" x="516" y="431"/><use href="#s3" x="1063" y="51"/><use href="#s3" x="305" y="6"/><use href="#s0" x="1231" y="628"/><use href="#s0" x="902" y="579"/><use href="#s0" x="65" y="631"/><use href="#s0" x="1334" y="261"/><use href="#s1" x="29" y="716"/><use href="#s0" x="705" y="840"/><use href="#s2" x="1404" y="744"/><use href="#s2" x="817" y="406"/><use href="#s3" x="1239" y="262"/></g><g fill-opacity="0.35"><use href="#s2" x="546" y="212"/><use href="#s0" x="750" y="350"/><use href="#s1" x="609" y="348"/><use href="#s0" x="40" y="181"/><use href="#s1" x="99" y="781"/><use href="#s1" x="468" y="667"/><use href="#s0" x="1594" y="119"/><use href="#s0" x="685" y="723"/><use href="#s3" x="1408" y="724"/><use href="#s0" x="57" y="776"/><use href="#s3" x="1348" y="70"/><use href="#s0" x="1273" y="100"/><use href="#s2" x="204" y="586"/><use href="#s0" x="440" y="36"/><use href="#s3" x="707" y="708"/><use href="#s2" x="1473" y="860"/><use href="#s2" x="1030" y="655"/><use href="#s3" x="537" y="76"/><use href="#s3" x="863" y="108"/><use href="#s2" x="188" y="740"/><use href="#s3" x="351" y="165"/><use href="#s0" x="1237" y="468"/><use href="#s2" x="507" y="570"/><use href="#s1" x="888" y="625"/></g><g fill-opacity="0.40"><use href="#s1" x="855" y="448"/><use href="#s2" x="1080" y="395"/><use href="#s3" x="1224" y="24"/><use href="#s2" x="542" y="73"/><use href="#s1" x="419" y="559"/><use href="#s2" x="117" y="357"/><use href="#s2" x="1502" y="16"/><use href="#s1" x="1396" y="242"/><use href="#s1" x="588" y="348"/><use href="#s2" x="1327" y="295"/></g><g fill-opacity="0.85"><use href="#s3" x="751" y="509"/><use href="#s2" x="1079" y="557"/><use href="#s1" x="307" y="560"/><use href="#s0" x="603" y="480"/><use href="#s3" x="1450" y="420"/><use href="#s0" x="1283" y="867"/><use href="#s2" x="1065" y="78"/><use href="#s1" x="721" y="331"/><use href="#s0" x="578" y="745"/><use href="#s0" x="855" y="22"/><use href="#s1" x="1163" y="113"/><use href="#s0" x="1273" y="297"/><use href="#s3" x="1416" y="325"/><use href="#s1" x="909" y="282"/><use href="#s2" x="685" y="354"/><use href="#s0" x="1011" y="79"/><use href="#s2" x="1324" y="705"/><use href="#s3" x="1241" y="386"/></g><g fill-opacity="0.65"><use href="#s2" x="1592" y="77"/><use href="#s2" x="884" y="851"/><use href="#s3" x="140" y="187"/><use href="#s1" x="933" y="878"/><use href="#s0" x="1327" y="343"/><use href="#s0" x="732" y="620"/><use href="#s1" x="1442" y="810"/><use href="#s0" x="1301" y="234"/><use href="#s1" x="1042" y="117"/><use href="#s0" x="687" y="384"/><use href="#s1" x="61" y="468"/></g><g fill-opacity="0.70"><use href="#s1" x="1154" y="344"/><use href="#s3" x="375" y="587"/><use href="#s2" x="8" y="103"/><use href="#s1" x="767" y="210"/><use href="#s1" x="566" y="801"/><use href="#s1" x="1188" y="40"/><use href="#s1" x="570" y="97"/><use href="#s2" x="1527" y="714"/><use href="#s1" x="1462" y="161"/><use href="#s0" x="868" y="609"/><use href="#s3" x="1353" y="839"/><use href="#s0" x="654" y="190"/></g><g fill-opacity="0.45"><use href="#s3" x="478" y="104"/><use href="#s3" x="1162" y="615"/><use href="#s0" x="88" y="823"/><use href="#s1" x="270" y="31"/><use href="#s0" x="333" y="477"/><use href="#s2" x="1110" y="790"/><use href="#s3" x="121" y="684"/><use href="#s1" x="135" y="315"/><use href="#s2" x="1486" y="368"/><use href="#s2" x="790" y="234"/><use href="#s3" x="139" y="785"/></g><g fill-opacity="0.60"><use href="#s2" x="1083" y="893"/><use href="#s1" x="862" y="295"/><use href="#s2" x="744" y="286"/><use href="#s2" x="493" y="453"/><use href="#s3" x="249" y="784"/><use href="#s1" x="1151" y="892"/><use href="#s3" x="1114" y="813"/><use href="#s3" x="26" y="756"/><use href="#s2" x="361" y="286"/><use href="#s2" x="461" y="667"/><use href="#s1" x="149" y="498"/><use href="#s1" x="834" y="129"/><use href="#s1" x="1003" y="104"/><use href="#s0" x="628" y="465"/><use href="#s3" x="665" y="475"/><use href="#s1" x="643" y="606"/><use href="#s2" x="500" y="705"/><use href="#s2" x="532" y="793"/></g><g fill-opacity="1.00"><use href="#s3" x="805" y="478"/><use href="#s0" x="1196" y="520"/><use href="#s2" x="526" y="330"/><use href="#s1" x="690" y="429"/><use href="#s1" x="189" y="747"/><use href="#s3" x="1004" y="217"/><use href="#s1" x="1548" y="157"/><use href="#s1" x="1532" y="736"/><use href="#s2" x="168" y="107"/><use href="#s2" x="6" y="796"/><use href="#s2" x="1127" y="753"/><use href="#s0" x="1030" y="836"/></g><g fill-opacity="0.30"><use href="#s0" x="1116" y="803"/><use href="#s0" x="1063" y="383"/><use href="#s2" x="778" y="237"/><use href="#s0" x="885" y="589"/><use href="#s3" x="926" y="825"/><use href="#s1" x="346" y="800"/><use href="#s1" x="1420" y="66"/><use href="#s2" x="653" y="16"/><use href="#s2" x="111" y="546"/><use href="#s1" x="543" y="787"/></g><g fill-opacity="0.50"><use href="#s3" x="862" y="698"/><use href="#s2" x="707" y="724"/><use href="#s2" x="424" y="434"/><use href="#s2" x="1009" y="163"/><use href="#s0" x="90" y="13"/><use href="#s1" x="645" y="683"/><use href="#s2" x="221" y="778"/><use href="#s0" x="870" y="32"/><use href="#s0" x="1355" y="570"/><use href="#s0" x="1449" y="229"/><use href="#s2" x="1581" y="883"/></g><g fill-opacity="0.95"><use href="#s0" x="287" y="193"/><use href="#s1" x="1410" y="367"/><use href="#s1" x="566" y="350"/><use href="#s0" x="1448" y="718"/><use href="#s0" x="76" y="230"/><use href="#s3" x="610" y="842"/><use href="#s1" x="804" y="189"/><use href="#s1" x="1150" y="412"/><use href="#s2" x="1085" y="351"/><use href="#s2" x="649" y="159"/></g><g fill-opacity="0.90"><use href="#s3" x="292" y="654"/><use href="#s1" x="611" y="811"/><use href="#s1" x="1193" y="686"/><use href="#s0" x="1269" y="420"/><use href="#s3" x="1483" y="325"/><use href="#s1" x="709" y="678"/><use href="#s1" x="238" y="389"/><use href="#s3" x="112" y="220"/><use href="#s0" x="369" y="86"/></g><g fill-opacity="0.75"><use href="#s0" x="1139" y="408"/><use href="#s2" x="454" y="748"/><use href="#s1" x="1456" y="99"/><use href="#s0" x="183" y="314"/><use href="#s2" x="763" y="87"/><use href="#s3" x="604" y="303"/><use href="#s3" x="700" y="83"/><use href="#s1" x="448" y="310"/><use href="#s3" x="189" y="681"/><use href="#s0" x="1117" y="766"/><use href="#s0" x="522" y="400"/><use href="#s2" x="45" y="355"/></g></svg>