<svg xmlns="http://www.w3.org/2000/svg" class="absolute left-1/2 -translate-x-1/2 object-cover opacity-75 s-GfNvCE_LmVsp" width="1600" height="900" viewBox="0 0 1600 900"><circle cx="411" cy="159" r="1.11" fill="rgba(255,255,255,0.67)"/><circle cx="597" cy="898" r="0.87" fill="rgba(255,255,255,0.11)"/><circle cx="1565" cy="616" r="0.42" fill="rgba(255,255,255,0.72)"/><circle cx="583" cy="255" r="0.47" fill="rgba(255,255,255,0.68)"/><circle cx="1565" cy="119" r="0.71" fill="rgba(255,255,255,0.53)"/><circle cx="1350" cy="841" r="0.83" fill="rgba(255,255,255,0.12)"/><circle cx="563" cy="111" r="0.49" fill="rgba(255,255,255,0.03)"/><circle cx="296" cy="422" r="0.10" fill="rgba(255,255,255,0.40)"/><circle cx="624" cy="110" r="0.63" fill="rgba(255,255,255,0.45)"/><circle cx="1383" cy="504" r="0.69" fill="rgba(255,255,255,0.48)"/><circle cx="1248" cy="113" r="1.14" fill="rgba(255,255,255,0.87)"/><circle cx="1111" cy="105" r="0.75" fill="rgba(255,255,255,0.50)"/><circle cx="606" cy="575" r="0.73" fill="rgba(255,255,255,0.59)"/><circle cx="999" cy="592" r="1.19" fill="rgba(255,255,255,0.82)"/><circle cx="861" cy="870" r="0.75" fill="rgba(255,255,255,0.32)"/><circle cx="161" cy="17" r="0.17" fill="rgba(255,255,255,0.84)"/><circle cx="1597" cy="738" r="0.74" fill="rgba(255,255,255,0.18)"/><circle cx="1587" cy="321" r="0.30" fill="rgba(255,255,255,0.69)"/><circle cx="553" cy="205" r="1.10" fill="rgba(255,255,255,0.49)"/><circle cx="118" cy="425" r="0.45" fill="rgba(255,255,255,0.63)"/><circle cx="43" cy="688" r="0.29" fill="rgba(255,255,255,0.39)"/><circle cx="126" cy="403" r="0.35" fill="rgba(255,255,255,0.38)"/><circle cx="1491" cy="89" r="0.43" fill="rgba(255,255,255,0.28)"/><circle cx="492" cy="532" r="1.02" fill="rgba(255,255,255,0.18)"/><circle cx="856" cy="755" r="0.47" fill="rgba(255,255,255,0.06)"/><circle cx="1285" cy="627" r="1.08" fill="rgba(255,255,255,0.71)"/><circle cx="958" cy="632" r="0.57" fill="rgba(255,255,255,0.21)"/><circle cx="135" cy="557" r="0.18" fill="rgba(255,255,255,0.78)"/><circle cx="711" cy="894" r="1.05" fill="rgba(255,255,255,0.60)"/><circle cx="720" cy="140" r="1.12" fill="rgba(255,255,255,0.87)"/><circle cx="1247" cy="355" r="1.37" fill="rgba(255,255,255,0.24)"/><circle cx="1336" cy="219" r="0.79" fill="rgba(255,255,255,0.47)"/><circle cx="148" cy="65" r="0.62" fill="rgba(255,255,255,0.74)"/><circle cx="379" cy="425" r="0.92" fill="rgba(255,255,255,0.21)"/><circle cx="969" cy="80" r="0.87" fill="rgba(255,255,255,0.59)"/><circle cx="1122" cy="813" r="0.55" fill="rgba(255,255,255,0.85)"/><circle cx="1270" cy="118" r="0.85" fill="rgba(255,255,255,0.36)"/><circle cx="1396" cy="187" r="1.39" fill="rgba(255,255,255,0.06)"/><circle cx="745" cy="502" r="0.90" fill="rgba(255,255,255,0.53)"/><circle cx="162" cy="99" r="0.48" fill="rgba(255,255,255,0.95)"/><circle cx="647" cy="670" r="0.98" fill="rgba(255,255,255,0.32)"/><circle cx="195" cy="133" r="1.24" fill="rgba(255,255,255,0.54)"/><circle cx="915" cy="679" r="0.22" fill="rgba(255,255,255,0.19)"/><circle cx="461" cy="675" r="0.80" fill="rgba(255,255,255,0.95)"/><circle cx="1408" cy="287" r="0.70" fill="rgba(255,255,255,0.24)"/><circle cx="591" cy="551" r="1.20" fill="rgba(255,255,255,0.40)"/><circle cx="829" cy="108" r="0.19" fill="rgba(255,255,255,0.40)"/><circle cx="1466" cy="364" r="1.06" fill="rgba(255,255,255,0.08)"/><circle cx="1352" cy="366" r="0.28" fill="rgba(255,255,255,0.36)"/><circle cx="287" cy="694" r="1.38" fill="rgba(255,255,255,0.79)"/><circle cx="1352" cy="807" r="0.69" fill="rgba(255,255,255,0.48)"/><circle cx="960" cy="594" r="0.18" fill="rgba(255,255,255,0.38)"/><circle cx="236" cy="17" r="0.60" fill="rgba(255,255,255,0.30)"/><circle cx="1372" cy="859" r="1.30" fill="rgba(255,255,255,0.08)"/><circle cx="965" cy="398" r="0.13" fill="rgba(255,255,255,0.06)"/><circle cx="768" cy="377" r="0.77" fill="rgba(255,255,255,0.53)"/><circle cx="686" cy="844" r="0.46" fill="rgba(255,255,255,0.89)"/><circle cx="29" cy="869" r="0.01" fill="rgba(255,255,255,0.72)"/><circle cx="1460" cy="485" r="1.23" fill="rgba(255,255,255,0.89)"/><circle cx="1252" cy="194" r="0.79" fill="rgba(255,255,255,0.66)"/></svg>