<svg xmlns="http://www.w3.org/2000/svg" viewBox="0 0 900 28" width="900" height="28" preserveAspectRatio="none" style="width: 900px; height: 100%; display: block;"><path d="M0,8h1v13h-1zM6,2h1v25h-1zM12,0h1v28h-1zM18,3h1v22h-1zM24,9h1v10h-1zM30,6h1v17h-1zM36,1h1v26h-1zM42,4h1v20h-1zM48,12h1v4h-1zM54,12h1v4h-1zM60,12h1v4h-1zM66,7h1v14h-1zM72,3h1v22h-1zM78,4h1v21h-1zM84,9h1v11h-1zM90,3h1v22h-1zM96,0h1v28h-1zM102,0h1v28h-1zM108,2h1v24h-1zM114,10h1v9h-1zM120,12h1v4h-1zM126,12h1v5h-1zM132,9h1v11h-1zM138,8h1v12h-1zM144,12h1v4h-1zM150,10h1v9h-1zM156,5h1v18h-1zM162,1h1v27h-1zM168,0h1v28h-1zM174,2h1v24h-1zM180,6h1v17h-1zM186,9h1v10h-1zM192,6h1v17h-1zM198,3h1v22h-1zM204,11h1v7h-1zM210,12h1v4h-1zM216,12h1v4h-1zM222,4h1v21h-1zM228,0h1v28h-1zM234,2h1v25h-1zM240,4h1v21h-1zM246,4h1v21h-1zM252,4h1v20h-1zM258,1h1v26h-1zM264,3h1v22h-1zM270,12h1v4h-1zM276,12h1v4h-1zM282,12h1v4h-1zM288,6h1v16h-1zM294,4h1v21h-1zM300,9h1v10h-1zM306,11h1v6h-1zM312,3h1v23h-1zM318,1h1v26h-1zM324,0h1v28h-1zM330,6h1v16h-1zM336,10h1v9h-1zM342,12h1v4h-1zM348,8h1v12h-1zM354,8h1v12h-1zM360,8h1v13h-1zM366,12h1v4h-1zM372,12h1v4h-1zM378,5h1v19h-1zM384,0h1v28h-1zM390,0h1v28h-1zM396,7h1v14h-1zM402,9h1v10h-1zM408,2h1v24h-1zM414,1h1v26h-1zM420,6h1v17h-1zM426,12h1v5h-1zM432,12h1v4h-1zM438,9h1v10h-1zM444,5h1v19h-1zM450,4h1v21h-1zM456,6h1v16h-1zM462,9h1v10h-1zM468,3h1v22h-1zM474,0h1v28h-1zM480,0h1v28h-1zM486,4h1v20h-1zM492,10h1v8h-1zM498,12h1v4h-1zM504,9h1v10h-1zM510,6h1v16h-1zM516,6h1v17h-1zM522,12h1v5h-1zM528,9h1v11h-1zM534,6h1v17h-1zM540,0h1v28h-1zM546,0h1v28h-1zM552,5h1v19h-1zM558,8h1v12h-1zM564,8h1v13h-1zM570,7h1v14h-1zM576,5h1v18h-1zM582,10h1v9h-1zM588,12h1v4h-1zM594,11h1v6h-1zM600,4h1v21h-1zM606,3h1v23h-1zM612,6h1v17h-1zM618,7h1v15h-1zM624,5h1v19h-1zM630,4h1v20h-1zM636,2h1v25h-1zM642,7h1v15h-1zM648,12h1v4h-1zM654,12h1v4h-1zM660,10h1v8h-1zM666,6h1v17h-1zM672,6h1v17h-1zM678,6h1v16h-1zM684,9h1v11h-1zM690,5h1v18h-1zM696,0h1v28h-1zM702,0h1v28h-1zM708,4h1v20h-1zM714,10h1v9h-1zM720,9h1v10h-1zM726,9h1v11h-1zM732,4h1v20h-1zM738,9h1v11h-1zM744,12h1v4h-1zM750,12h1v4h-1zM756,4h1v21h-1zM762,2h1v24h-1zM768,1h1v26h-1zM774,6h1v17h-1zM780,7h1v15h-1zM786,4h1v20h-1zM792,5h1v18h-1zM798,5h1v18h-1zM804,10h1v9h-1zM810,12h1v4h-1zM816,11h1v7h-1zM822,4h1v21h-1zM828,5h1v19h-1zM834,5h1v18h-1zM840,5h1v18h-1zM846,5h1v18h-1zM852,0h1v28h-1zM858,0h1v28h-1zM864,5h1v18h-1zM870,12h1v4h-1zM876,12h1v4h-1zM882,8h1v12h-1zM888,5h1v19h-1zM894,11h1v7h-1z" fill="white"/></svg>